# xmcd
#
# Track frame offsets:
#	150
#	12630
#	28450
#	41400
#	55215
#	69722
#	84617
#	101205
#	114555
#	127667
#	143140
#	156960
#	169992
#	181925
#	199665
#	212162
#	230567
#	245375
#	261785
#	276777
#	290655
#	304402
#	319240
#
# Disc length: 4428 seconds
#
# Revision: 0
# Processed by: cddbd v1.5.2PL0 Copyright (c) Steve Scherf et al.
# Submitted via: EasyCDDAExtractor 15.3.0.1
#
DISCID=61114a17
DTITLE=Matti and Teppo - Kaksi Alkuper‰ist‰ - Pid‰ Itsest‰si Huolta and Minuun Voi
DTITLE=t Luottaa
DYEAR=1983
DGENRE=Suomi Iskelm‰
TTITLE0=M‰ Joka P‰iv‰ Tˆit‰ Teen
TTITLE1=Pid‰ Itsest‰si Huolta
TTITLE2=El‰m‰ Koskettaa Tunteisiin
TTITLE3=Illan Viimeinen
TTITLE4=Lopputili
TTITLE5=Kyll‰ Maailma On Ihmeellinen
TTITLE6=Kunnon Mies
TTITLE7=Me Oomme T‰‰lt‰
TTITLE8=Se Toinen Nainen
TTITLE9=Kylm‰ On Miehen Yksin
TTITLE10=Kirkkoh‰‰t
TTITLE11=Olen Kiitollinen T‰n‰‰n
TTITLE12=Minuun Voit Luottaa
TTITLE13=N‰it Mun L‰vitsein
TTITLE14=Miss‰ Sit‰ Ollaan Oltu
TTITLE15=En Moiti El‰m‰‰
TTITLE16=Rakasta Mua Niin, Ett‰ Tuntuu
TTITLE17=Toivo El‰‰
TTITLE18=Menneet On P‰iv‰t
TTITLE19=El‰m‰ntapa
TTITLE20=Oikeus Voittaa
TTITLE21=Se Oikea
TTITLE22=Paras Yst‰v‰
EXTD=
EXTT0=
EXTT1=
EXTT2=
EXTT3=
EXTT4=
EXTT5=
EXTT6=
EXTT7=
EXTT8=
EXTT9=
EXTT10=
EXTT11=
EXTT12=
EXTT13=
EXTT14=
EXTT15=
EXTT16=
EXTT17=
EXTT18=
EXTT19=
EXTT20=
EXTT21=
EXTT22=
PLAYORDER=
